<?xml version="1.0" standalone="no"?>
<!DOCTYPE svg PUBLIC "-//W3C//DTD SVG 20010904//EN"
 "http://www.w3.org/TR/2001/REC-SVG-20010904/DTD/svg10.dtd">
<svg version="1.0" xmlns="http://www.w3.org/2000/svg"
 width="160.000000pt" height="160.000000pt" viewBox="0 0 160.000000 160.000000"
 preserveAspectRatio="xMidYMid meet">
<metadata>
Created by potrace 1.11, written by Peter Selinger 2001-2013
</metadata>
<g transform="translate(0.000000,160.000000) scale(0.100000,-0.100000)"
fill="#000000" stroke="none">
<path d="M734 1568 c-44 -21 -78 -117 -54 -153 23 -34 18 -44 -33 -68 -39 -19
-69 -26 -122 -26 -124 -2 -165 -9 -210 -36 -94 -55 -126 -129 -129 -302 l-1
-61 -27 5 c-55 11 -58 -1 -58 -207 0 -186 0 -187 23 -197 15 -7 29 -7 40 -1
12 6 17 5 18 -4 0 -7 2 -47 4 -88 8 -147 19 -187 68 -238 36 -38 115 -82 147
-82 12 0 30 -5 40 -10 13 -7 21 -7 25 0 4 7 11 7 18 2 13 -10 656 -8 696 2 81
19 124 41 166 83 56 57 67 96 69 234 l1 106 33 -8 c56 -12 63 10 61 207 -1 93
-6 177 -11 188 -8 14 -17 17 -44 13 -33 -6 -34 -4 -35 26 -4 164 -21 235 -71
286 -63 64 -123 82 -270 82 -49 -1 -90 4 -93 10 -4 5 -24 17 -46 25 -38 16
-38 16 -24 44 31 60 10 137 -45 165 -33 17 -104 19 -136 3z"/>
</g>
</svg>
